<?xml version="1.0" encoding="utf-8" ?>
<svg xmlns="http://www.w3.org/2000/svg" xmlns:xlink="http://www.w3.org/1999/xlink" width="1024" height="1024">
	<path transform="scale(2 2)" d="M178.337 139.717C184.13 125.166 187.032 109.591 188.567 94.0481C190.095 78.574 187.99 62.0242 208.441 60.8317C224.672 60.4866 240.984 60.8322 257.223 60.8306L277.668 60.812C308.274 60.7738 307.197 66.6829 309.869 96.4568C311.215 111.454 313.538 125.759 319.22 139.717C330.294 140.258 338.997 142.973 347.008 150.99C360.678 164.669 358.266 179.943 358.227 197.501C375.955 197.651 373.951 211.646 373.974 225.21C373.997 239.243 376.129 251.811 358.227 252.384L358.231 303.595C358.239 314.049 358.568 324.603 357.952 335.041C356.765 355.162 339.979 372.385 319.22 370.97C314.464 384.784 311.42 399.258 310.259 413.822C309.318 425.625 311.814 439.387 300.595 447.062C295.761 452.491 279.887 450.787 273.238 450.782L219.685 450.764C194.349 450.857 189.36 448.192 188.318 423.842C187.546 405.818 184.327 388.012 178.337 370.97C153.677 372.486 139.259 354.969 139.109 331.34L139.104 189.751C139.095 183.449 138.538 176.66 139.62 170.45C142.923 151.483 159.535 139.7 178.337 139.717ZM212.159 70.5141C195.804 71.0695 199.502 82.5382 198.122 95.6304C196.552 110.517 193.859 125.69 188.482 139.717L285.242 139.717L309.187 139.717C302.955 127.579 300.86 106.515 299.772 92.9321C299.172 85.4405 300.856 74.1594 291.81 71.1524C287.788 69.8152 268.279 70.5235 262.567 70.5238L212.159 70.5141ZM174.383 149.713C153.404 152.629 149.244 166.806 149.24 184.375L149.23 329.808C149.222 333.233 149.051 336.758 149.536 340.156C151.946 357.015 166.07 361.304 180.432 361.212L315.962 361.207C318.561 361.214 321.313 361.427 323.894 361.185C343.746 357.621 348.407 343.882 348.361 326.642L348.352 186.173C348.368 169.105 344.506 152.147 323.528 149.858C317.17 149.164 310.33 149.721 303.916 149.723L184.243 149.705C180.978 149.702 177.636 149.54 174.383 149.713ZM358.227 207.519L358.227 242.59C359.867 242.579 361.776 242.897 363.363 242.59C364.955 237.449 364.944 211.737 363.517 208.82C362.707 207.163 359.7 207.544 358.227 207.519ZM188.482 370.97C194.162 389.194 197.073 407.027 197.94 425.996C198.706 442.738 203.22 441.16 219.119 441.16L271.805 441.162C280.91 441.16 296.789 444.731 299.32 432.433C302.01 412.416 300.437 390.118 309.187 370.97L188.482 370.97Z"/>
	<path transform="scale(2 2)" d="M311.528 351.236C308.06 351.086 304.57 351.228 301.098 351.231L198.4 351.249C193.33 351.25 188.094 351.48 183.081 350.633C161.962 347.066 158.169 329.973 158.196 312.428L158.189 202.858C158.19 197.16 157.669 189.43 158.463 183.945C160.463 170.12 172.053 160.885 185.637 159.765C194.45 159.604 203.299 159.764 212.116 159.764L294.244 159.755C312.07 159.756 332.452 159.257 337.407 182.178C338.962 189.37 338.241 200.968 338.238 208.599L338.238 298.695C338.237 323.093 341.453 344.77 311.528 351.236ZM185.637 169.78C164.343 172.086 167.852 192.038 167.851 207.451L167.858 295.993C167.848 311.347 163.604 338.6 185.259 341.271C190.721 341.945 196.629 341.51 202.141 341.507L285.448 341.5C293.687 341.501 302.097 341.888 310.309 341.494C332.988 338.126 328.501 313.181 328.498 296.673L328.501 205.355C328.502 199.612 329.044 190.806 328.181 185.398C325.309 167.394 307.687 169.76 294.724 169.766L210.228 169.778C202.089 169.777 193.753 169.395 185.637 169.78Z"/>
	<path transform="scale(2 2)" d="M193.421 237.605C196.91 228.365 201.574 215.25 213.022 214.096C230.675 214.767 223.833 239.861 199.562 244.817C197.684 248.779 192.813 260.129 193.949 264.213C195.4 269.427 201.563 270.666 206.133 269.03C221.112 263.67 222.139 238.425 227.925 242.8C234.05 247.431 223.065 260.005 223.98 266.368C224.256 268.282 226.257 266.544 226.971 265.886C233.171 260.173 233.523 240.627 240.648 242.567C245.433 243.869 238.441 260.092 237.436 263.012C242.404 256.508 242.852 248.375 250.262 243.325C254.315 240.562 260.452 239.314 263.26 244.369C266.019 249.336 263.075 257.16 261.576 262.152C265.974 255.174 267.047 247.231 270.272 241.843C273.799 239.48 275.988 242.031 276.3 245.617C278.69 242.35 284.618 238.305 287.656 243.211C291.919 250.093 284.346 262.143 282.713 269.073C292.551 261.638 294.191 243.754 296.568 241.64C299.049 239.433 302.461 242.111 302.335 245.617C304.668 242.801 307.557 240.301 311.484 241.393C321.498 244.178 310.831 262.218 309.31 267.79L309.187 268.251C312.255 266.406 314.552 263.739 317.036 261.212C319.301 262.141 320.704 263.584 322.126 265.505C320.621 267.553 318.774 269.366 317.036 271.217C313.365 274.183 307.038 278.127 303.276 273.107C299.03 267.44 307.921 255.356 309.187 248.263C297.8 255.946 294.663 272.829 291.423 274.896C290.207 275.672 287.427 274.84 286.076 274.525C269.32 279.832 277.925 263.271 280.387 256.752C281.425 254.004 282.053 251.12 282.713 248.263C275.112 253.048 271.477 260.198 268.425 268.315C266.208 274.215 262.922 280.054 258.681 271.217C253.118 277.594 244.813 277.112 240.609 269.834C233.112 277.013 234.383 274.002 230.727 283.437C227.157 292.652 210.958 303.511 207.071 293.733C204.185 286.471 215.307 276.706 220.989 274.525C219.649 273.479 218.408 272.405 217.193 271.217C207.485 275.824 198.777 282.337 189.705 271.217C177.031 287.406 162.335 265.568 176.462 260.155C179.7 258.913 182.649 259.862 185.637 261.212C187.364 255.723 189.121 250.254 191.008 244.817C175.482 243.304 175.458 226.4 181.907 228.014C187.135 229.322 182.339 235.403 193.421 237.605ZM212.159 221.76C206.341 224.69 203.483 231.591 201.99 237.605C203.153 236.948 204.256 236.262 205.354 235.499C210.085 233.008 221.969 220.994 212.159 221.76ZM256.562 248.263C249.562 250.943 241.999 268.101 250.105 268.251C255.685 266.11 266.183 247.753 256.562 248.263ZM178.337 267.075C178.125 268.35 177.939 269.506 179.49 269.655L180.695 269.073C182.819 266.694 180.359 266.96 178.337 267.075ZM222.978 281.751C220.384 283.239 214.9 286.655 214.43 289.812L214.61 289.986C216.87 289.147 223.841 284.798 222.978 281.751Z"/>
</svg>
